<?xml version="1.0" encoding="UTF-8" standalone="no"?>
<svg
   xmlns:dc="http://purl.org/dc/elements/1.1/"
   xmlns:cc="http://creativecommons.org/ns#"
   xmlns:rdf="http://www.w3.org/1999/02/22-rdf-syntax-ns#"
   xmlns:svg="http://www.w3.org/2000/svg"
   xmlns="http://www.w3.org/2000/svg"
   xmlns:sodipodi="http://sodipodi.sourceforge.net/DTD/sodipodi-0.dtd"
   xmlns:inkscape="http://www.inkscape.org/namespaces/inkscape"
   version="1.0"
   width="1091.000000pt"
   height="177.000000pt"
   viewBox="0 0 1091.000000 177.000000"
   preserveAspectRatio="xMidYMid meet"
   id="svg3864"
   sodipodi:docname="gambitLogoWhite.svg"
   inkscape:version="0.92.3 (2405546, 2018-03-11)">
  <defs
     id="defs3868" />
  <sodipodi:namedview
     pagecolor="#ffffff"
     bordercolor="#666666"
     borderopacity="1"
     objecttolerance="10"
     gridtolerance="10"
     guidetolerance="10"
     inkscape:pageopacity="0"
     inkscape:pageshadow="2"
     inkscape:window-width="1600"
     inkscape:window-height="845"
     id="namedview3866"
     showgrid="false"
     inkscape:zoom="0.68345014"
     inkscape:cx="691.20431"
     inkscape:cy="157.75797"
     inkscape:window-x="0"
     inkscape:window-y="27"
     inkscape:window-maximized="1"
     inkscape:current-layer="svg3864" />
  <metadata
     id="metadata3828">
Created by potrace 1.15, written by Peter Selinger 2001-2017
<rdf:RDF>
  <cc:Work
     rdf:about="">
    <dc:format>image/svg+xml</dc:format>
    <dc:type
       rdf:resource="http://purl.org/dc/dcmitype/StillImage" />
    <dc:title></dc:title>
  </cc:Work>
</rdf:RDF>
</metadata>
  <g
     transform="translate(0.000000,177.000000) scale(0.100000,-0.100000)"
     fill="#000000"
     stroke="none"
     id="g3862"
     style="fill:#ffffff;fill-opacity:0">
    <path
       d="M9635 1486 c-16 -7 -51 -32 -77 -55 -35 -31 -60 -44 -100 -51 -137 -26 -283 -138 -352 -269 -57 -110 -79 -207 -73 -326 8 -154 54 -260 144 -328 l37 -27 24 23 23 24 -30 46 c-128 189 -94 525 69 685 61 60 137 92 219 92 l57 0 19 42 c29 60 45 61 45 1 l0 -48 195 -195 c157 -157 194 -199 189 -215 -19 -63 -85 -74 -152 -26 -22 16 -43 35 -47 41 -4 6 -24 8 -54 4 -87 -11 -213 27 -267 81 -35 35 -31 71 11 110 l36 32 -19 23 c-19 23 -20 23 -45 7 -145 -95 -120 -224 63 -325 214 -118 321 -240 339 -386 l6 -51 68 -3 c82 -4 86 3 58 83 -30 86 -76 155 -164 250 -43 47 -77 85 -74 85 2 0 34 -16 71 -35 96 -50 152 -49 207 3 30 28 44 51 55 92 18 69 22 62 -172 259 -174 178 -172 169 -71 230 31 18 54 37 51 42 -3 5 -41 9 -85 9 -78 0 -79 0 -68 21 6 12 24 26 40 32 16 6 29 14 29 18 0 21 -160 25 -205 5z"
       id="path3830"
       style="fill:#ffffff;fill-opacity:0" />
    <path
       d="M825 1181 c-51 -13 -92 -39 -128 -81 -46 -55 -60 -110 -55 -218 3 -74 9 -96 31 -135 15 -25 43 -58 62 -73 97 -74 269 -70 382 8 l43 29 0 94 0 95 -120 0 -120 0 0 -30 0 -30 86 0 85 0 -3 -52 c-3 -51 -5 -54 -45 -76 -79 -43 -196 -39 -257 9 -92 72 -99 273 -13 357 73 71 205 69 274 -5 29 -30 37 -33 60 -26 15 5 28 14 30 20 6 17 -46 72 -90 94 -44 23 -169 34 -222 20z"
       id="path3832"
       style="fill:#ffffff;fill-opacity:0" />
    <path
       d="M4582 1175 c-64 -20 -107 -58 -139 -122 -25 -51 -28 -69 -28 -148 1 -69 6 -100 21 -135 41 -87 118 -139 219 -148 176 -14 296 97 299 273 1 101 -19 160 -73 216 -71 72 -190 98 -299 64z m170 -57 c49 -15 103 -74 119 -130 14 -53 6 -165 -15 -206 -51 -99 -188 -132 -284 -69 -93 63 -113 262 -35 355 46 55 133 75 215 50z"
       id="path3834"
       style="fill:#ffffff;fill-opacity:0" />
    <path
       d="M6900 1184 c-59 -11 -91 -27 -120 -60 -57 -65 -34 -166 49 -208 14 -8 67 -24 117 -36 108 -26 151 -49 160 -86 16 -63 -51 -114 -149 -114 -73 0 -123 21 -145 60 -17 30 -38 36 -74 22 -14 -6 -15 -11 -3 -38 30 -72 126 -111 249 -101 128 9 196 63 196 155 0 89 -45 125 -203 165 -53 14 -109 32 -122 41 -30 20 -41 59 -26 92 32 72 220 71 253 0 11 -26 35 -32 71 -18 16 7 16 9 -1 42 -26 48 -83 77 -162 83 -36 3 -76 3 -90 1z"
       id="path3836"
       style="fill:#ffffff;fill-opacity:0" />
    <path
       d="M7652 1175 c-65 -20 -111 -61 -141 -124 -22 -47 -26 -70 -26 -146 0 -78 4 -97 28 -147 15 -31 43 -68 63 -83 105 -80 269 -71 360 20 50 51 55 71 19 87 -24 11 -28 8 -57 -27 -58 -70 -145 -92 -223 -56 -85 38 -120 110 -113 232 7 121 56 181 160 195 66 9 121 -10 161 -56 32 -38 36 -39 65 -29 18 6 32 15 32 20 0 5 -19 30 -41 54 -64 70 -180 94 -287 60z"
       id="path3838"
       style="fill:#ffffff;fill-opacity:0" />
    <path
       d="M8217 1180 c-59 -10 -92 -31 -117 -73 -36 -59 -17 -143 42 -181 13 -8 75 -29 138 -46 121 -33 160 -56 160 -96 0 -68 -52 -104 -149 -104 -76 0 -126 20 -149 60 -17 31 -44 38 -72 20 -13 -8 -12 -14 5 -47 28 -54 87 -83 179 -90 101 -8 167 9 217 57 36 34 39 41 39 89 0 101 -36 132 -207 176 -53 14 -108 32 -120 40 -49 32 -37 106 22 130 74 32 188 8 210 -42 10 -24 47 -31 73 -14 27 16 -26 89 -78 109 -39 15 -140 21 -193 12z"
       id="path3840"
       style="fill:#ffffff;fill-opacity:0" />
    <path
       d="M1334 913 c-60 -146 -110 -270 -112 -275 -2 -4 14 -8 36 -8 l39 0 30 78 30 77 128 0 128 0 30 -77 30 -78 38 0 39 0 -21 53 c-11 28 -61 152 -111 275 l-90 222 -43 0 -42 0 -109 -267z m204 65 l50 -128 -99 0 c-55 0 -99 3 -99 8 0 9 93 252 96 249 1 -1 25 -59 52 -129z"
       id="path3842"
       style="fill:#ffffff;fill-opacity:0" />
    <path
       d="M1820 905 l0 -275 30 0 30 0 1 233 c0 145 4 225 9 212 5 -11 45 -114 89 -230 76 -202 80 -210 107 -213 29 -3 29 -2 116 230 l87 233 1 -232 0 -233 30 0 30 0 0 276 0 275 -47 -3 -47 -3 -63 -165 c-34 -91 -72 -194 -84 -229 l-22 -64 -17 54 c-9 30 -47 134 -85 232 l-68 177 -49 0 -48 0 0 -275z"
       id="path3844"
       style="fill:#ffffff;fill-opacity:0" />
    <path
       d="M2480 904 l0 -276 158 4 c135 3 162 6 191 23 107 63 107 200 0 249 l-47 22 28 11 c42 16 65 58 64 117 0 42 -5 53 -32 77 -44 39 -89 49 -234 49 l-128 0 0 -276z m269 205 c35 -12 51 -35 51 -73 0 -66 -36 -86 -155 -86 l-85 0 0 85 0 85 79 0 c43 0 92 -5 110 -11z m26 -233 c18 -8 38 -23 44 -34 19 -35 13 -89 -13 -119 -23 -27 -28 -28 -135 -31 l-111 -4 0 101 0 101 90 0 c56 0 104 -5 125 -14z"
       id="path3846"
       style="fill:#ffffff;fill-opacity:0" />
    <path
       d="M3030 905 l0 -275 35 0 35 0 0 275 0 275 -35 0 -35 0 0 -275z"
       id="path3848"
       style="fill:#ffffff;fill-opacity:0" />
    <path
       d="M3190 1150 l0 -30 95 0 95 0 0 -245 0 -245 35 0 35 0 0 245 0 245 95 0 95 0 0 30 0 30 -225 0 -225 0 0 -30z"
       id="path3850"
       style="fill:#ffffff;fill-opacity:0" />
    <path
       d="M3952 903 l3 -278 35 0 35 0 3 113 3 112 149 0 150 0 0 30 0 30 -150 0 -150 0 0 105 0 105 155 0 155 0 0 30 0 30 -195 0 -195 0 2 -277z"
       id="path3852"
       style="fill:#ffffff;fill-opacity:0" />
    <path
       d="M5060 906 l0 -276 40 0 40 0 0 115 0 115 83 0 84 0 70 -112 c69 -112 70 -113 111 -116 23 -2 42 -1 42 2 0 3 -33 56 -74 117 l-73 112 41 21 c56 29 86 76 86 138 0 62 -20 100 -67 130 -35 21 -50 23 -210 26 l-173 4 0 -276z m319 203 c34 -12 61 -53 61 -93 0 -14 -13 -40 -29 -58 l-29 -33 -121 -3 -121 -4 0 101 0 101 104 0 c56 0 117 -5 135 -11z"
       id="path3854"
       style="fill:#ffffff;fill-opacity:0" />
    <path
       d="M5640 905 l0 -275 215 0 215 0 0 30 0 30 -180 0 -180 0 0 95 0 95 160 0 160 0 0 30 0 30 -160 0 -160 0 0 90 0 90 175 0 175 0 0 30 0 30 -210 0 -210 0 0 -275z"
       id="path3856"
       style="fill:#ffffff;fill-opacity:0" />
    <path
       d="M6170 906 l0 -276 35 0 35 0 2 227 3 227 141 -225 141 -224 46 -3 47 -3 0 275 0 276 -36 0 -35 0 3 -230 c2 -126 0 -226 -4 -222 -4 4 -70 106 -146 227 l-139 220 -46 3 -47 3 0 -275z"
       id="path3858"
       style="fill:#ffffff;fill-opacity:0" />
    <path
       d="M7290 905 l0 -275 40 0 40 0 0 275 0 275 -40 0 -40 0 0 -275z"
       id="path3860"
       style="fill:#ffffff;fill-opacity:0" />
  </g>
</svg>
